<?xml version="1.0" standalone="no"?>
<!DOCTYPE svg PUBLIC "-//W3C//DTD SVG 20010904//EN"
 "http://www.w3.org/TR/2001/REC-SVG-20010904/DTD/svg10.dtd">
<svg version="1.0" xmlns="http://www.w3.org/2000/svg"
 width="120.000000pt" height="120.000000pt" viewBox="0 0 120.000000 120.000000"
 preserveAspectRatio="xMidYMid meet">

<g transform="translate(0.000000,120.000000) scale(0.100000,-0.100000)"
fill="#202020" stroke="none">
<path d="M537 1194 c-4 -4 -7 -45 -7 -90 0 -49 -4 -86 -11 -90 -7 -4 -10 18
-9 72 1 44 1 86 -1 94 -5 30 -15 -98 -18 -235 -2 -77 -7 -183 -11 -235 -6 -62
-7 1 -3 183 3 179 1 277 -5 277 -6 0 -13 -21 -16 -47 -8 -61 -23 -375 -32
-658 -4 -121 -11 -229 -15 -240 -5 -11 -6 143 -3 352 7 402 0 573 -21 573 -18
0 -24 -73 -35 -485 -5 -198 -13 -400 -16 -450 -12 -158 -23 -64 -24 205 -2
356 -14 658 -27 671 -8 8 -13 7 -18 -1 -4 -7 -14 -197 -21 -424 -7 -226 -16
-429 -20 -451 -7 -40 -7 -40 -15 -11 -4 16 -9 155 -10 310 -3 315 -10 481 -21
492 -24 23 -33 -49 -48 -369 -11 -244 -17 -323 -25 -315 -2 2 -11 111 -19 243
-14 218 -23 271 -43 252 -13 -14 -33 -135 -38 -232 -5 -107 -4 -104 25 103 7
45 16 82 20 82 4 0 11 -62 14 -137 9 -172 24 -341 31 -354 11 -17 23 -9 29 18
5 22 36 560 36 621 0 6 4 12 9 12 5 0 11 -164 13 -372 3 -205 8 -381 12 -390
11 -25 32 -22 40 5 6 20 13 156 33 677 10 253 20 130 27 -325 5 -372 11 -453
32 -447 19 5 24 69 35 452 16 586 26 591 28 12 1 -398 4 -503 14 -500 15 6 23
86 32 353 4 116 11 228 16 250 4 22 5 -95 2 -260 -3 -165 -2 -315 2 -333 15
-68 25 -27 26 106 1 75 5 151 9 167 5 18 8 -35 9 -132 0 -89 4 -168 7 -177 9
-23 22 -20 27 7 l4 22 2 -22 c1 -30 19 -30 25 0 7 29 24 407 32 705 4 127 11
232 16 232 4 0 8 -41 8 -90 0 -78 3 -91 18 -96 112 -33 167 -116 148 -219 -10
-49 -79 -119 -131 -131 l-38 -9 -1 -200 -1 -200 37 -3 c51 -4 150 22 228 60
89 44 214 169 257 259 84 171 83 366 -4 538 -89 176 -286 305 -478 313 l-60 3
-15 -462 c-8 -254 -19 -465 -23 -470 -5 -4 -6 190 -2 432 6 405 2 529 -18 509z
m413 -264 c6 -11 15 -18 20 -15 5 3 23 -18 39 -47 57 -100 59 -96 12 17 l-21
50 31 -35 31 -35 -17 33 c-28 56 -11 58 24 3 55 -85 83 -166 89 -256 9 -157
-37 -306 -128 -408 -45 -51 -66 -57 -32 -10 22 32 74 133 68 133 -2 0 -22 -29
-45 -65 -22 -36 -45 -65 -52 -65 -7 0 -5 10 6 26 9 14 15 28 12 30 -3 3 -15
-11 -27 -31 -30 -49 -37 -37 -9 17 l22 43 -22 -19 c-23 -21 -28 -9 -10 27 9
20 9 20 -11 -2 -33 -38 -35 -17 -2 31 34 50 55 88 48 88 -2 0 -14 -16 -26 -35
-27 -44 -46 -46 -25 -2 15 30 14 30 -25 -12 -39 -43 -51 -42 -29 2 8 18 5 17
-15 -5 -33 -37 -40 -35 -21 5 l16 32 -23 -27 c-28 -32 -43 -37 -28 -8 9 17 8
19 -7 13 -15 -5 -16 -3 -5 8 18 19 15 34 -5 18 -15 -13 -15 -12 -3 11 8 14 14
32 15 40 0 8 7 34 14 58 12 36 12 53 3 95 -7 29 -13 61 -15 72 -1 11 -10 35
-20 53 -24 45 -6 40 22 -5 13 -22 19 -29 16 -15 l-7 23 36 -21 c20 -11 36 -18
36 -16 0 2 -7 20 -15 40 -16 38 -11 47 11 19 13 -17 14 -17 7 2 -15 43 23 -4
52 -64 16 -34 30 -59 32 -57 2 2 -8 34 -21 72 -27 73 -27 93 -1 47 15 -26 15
-26 9 -3 -3 14 -13 40 -20 59 -20 48 -17 50 17 11 30 -35 30 -35 16 -5 -32 65
-46 105 -37 105 5 0 14 -9 20 -20z m-433 -137 c-3 -10 -5 -2 -5 17 0 19 2 27
5 18 2 -10 2 -26 0 -35z m0 -330 c-3 -10 -5 -4 -5 12 0 17 2 24 5 18 2 -7 2
-21 0 -30z"/>
<path d="M622 598 c6 -18 28 -21 28 -4 0 9 -7 16 -16 16 -9 0 -14 -5 -12 -12z"/>
</g>
</svg>
